PathFileType	4	(X/Y/Z)	C:\Users\Basilio\Documents\Thesis Gigler\squatting_fais\c3dfiles\044\SLS_front_pre1\markers_experimental.trc
DataRate	CameraRate	NumFrames	NumMarkers	Units	OrigDataRate	OrigDataStartFrame	OrigNumFrames
200.000000	200.000000	4	60	mm	200.000000	196	1570
Frame#	Time	FHD			LBHD			RBHD			C7			T10			CLAV			LSHO			LUUPA			LMUPA			LDUPA			LLEP			LMEP			LUL			LRFIN			RSHO			RUPA1			RMUPA			RDUPA			RLEP			RMEP			RUL			RUFIN			LASI			RASI			USACR			LSACR			LTHI1			LTHI2			LTHI3			LTHI4			LLFC			LMFC			LTIB1			LTIB2			LTIB3			LTIB4			LLMAL			LMMAL			LHEE			LMT1			LMT2			LMT5			RTHI			RTHI2			RTHI3			RTHI4			RLFC			RMFC			RTIB1			RTIB2			RTIB3			RTIB4			RLMAL			RHEE			RMT1			RMT2			RMT5			RMMAL			RSACR			LRAD			
		X1	Y1	Z1	X2	Y2	Z2	X3	Y3	Z3	X4	Y4	Z4	X5	Y5	Z5	X6	Y6	Z6	X7	Y7	Z7	X8	Y8	Z8	X9	Y9	Z9	X10	Y10	Z10	X11	Y11	Z11	X12	Y12	Z12	X13	Y13	Z13	X14	Y14	Z14	X15	Y15	Z15	X16	Y16	Z16	X17	Y17	Z17	X18	Y18	Z18	X19	Y19	Z19	X20	Y20	Z20	X21	Y21	Z21	X22	Y22	Z22	X23	Y23	Z23	X24	Y24	Z24	X25	Y25	Z25	X26	Y26	Z26	X27	Y27	Z27	X28	Y28	Z28	X29	Y29	Z29	X30	Y30	Z30	X31	Y31	Z31	X32	Y32	Z32	X33	Y33	Z33	X34	Y34	Z34	X35	Y35	Z35	X36	Y36	Z36	X37	Y37	Z37	X38	Y38	Z38	X39	Y39	Z39	X40	Y40	Z40	X41	Y41	Z41	X42	Y42	Z42	X43	Y43	Z43	X44	Y44	Z44	X45	Y45	Z45	X46	Y46	Z46	X47	Y47	Z47	X48	Y48	Z48	X49	Y49	Z49	X50	Y50	Z50	X51	Y51	Z51	X52	Y52	Z52	X53	Y53	Z53	X54	Y54	Z54	X55	Y55	Z55	X56	Y56	Z56	X57	Y57	Z57	X58	Y58	Z58	X59	Y59	Z59	X60	Y60	Z60	

197	0.98	-181.7590789794922	1774.547485351563	-1050.475341796875	-318.5741271972657	1761.077026367188	-1127.773193359375	-365.4913940429688	1752.951904296875	-968.200866699219	-405.4928588867189	1570.607055664063	-1056.238159179688	-420.5867309570314	1264.788208007813	-1036.232788085938	-267.1038208007813	1526.47119140625	-1048.614868164063	-305.8790588378907	1576.693237304688	-1198.953247070313	-144.9817810058594	1525.055053710938	-1293.760009765625	-117.3427429199219	1530.29248046875	-1252.197387695313	-77.75361633300783	1508.469604492188	-1293.74658203125	-20.51567649841309	1497.29150390625	-1282.568725585938	-43.72232818603516	1420.929931640625	-1268.708374023438	216.4836425781251	1469.648315429688	-1132.694458007813	235.7357025146485	1479.909912109375	-1026.500610351563	-328.7477111816407	1578.6953125	-892.2478637695315	-184.9568481445313	1521.419067382813	-779.503112792969	-149.532699584961	1530.0654296875	-814.632019042969	-117.0764541625977	1507.197143554688	-770.5239257812502	-55.40339660644533	1498.127563476563	-776.1636352539065	-72.38825988769533	1418.334106445313	-788.9808349609377	198.4020690917969	1463.680908203125	-893.2254638671877	218.5827331542969	1456.892822265625	-1007.412719726563	-230.8829498291016	1070.0146484375	-1114.102905273438	-248.9424285888672	1061.330688476563	-895.047546386719	-409.3250732421876	1115.54248046875	-1014.578979492188	-410.2843627929689	1081.44287109375	-1040.456176757813	-322.6040039062501	828.1799316406252	-1175.002319335938	-288.8886108398438	751.8681640625001	-1165.685424804688	-242.0765686035157	756.1015625000001	-1161.19482421875	-315.6264953613282	699.7816772460939	-1150.911254882813	-300.6596984863282	540.7830200195314	-1123.414672851563	-291.0563049316407	544.6607666015626	-1001.346130371094	-277.8742980957032	371.9041442871094	-1037.510498046875	-306.4002990722657	318.3966674804688	-1102.994262695313	-275.3018493652344	319.9812316894532	-1067.708984375	-290.5588684082032	244.5489501953126	-1030.578002929688	-345.7803039550782	126.5566101074219	-1063.491943359375	-324.0340576171876	140.3794250488282	-981.5074462890627	-408.3846130371095	111.1834487915039	-1010.222534179688	-202.9478149414063	65.25830841064455	-987.6199340820315	-202.5319366455079	61.95428466796876	-1034.390502929688	-238.8138885498047	46.35016250610352	-1080.738159179688	-313.5398254394532	791.0516357421877	-803.573669433594	-265.9709777832032	744.3495483398439	-793.5118408203127	-233.2496948242188	750.0694580078126	-799.0069580078127	-278.4586791992188	661.2052001953126	-802.310485839844	-258.7169189453126	550.9534912109376	-795.0371704101565	-267.0673217773438	528.4248046875001	-917.0654296875002	-205.7136230468751	424.2893676757814	-808.045349121094	-269.7120361328126	355.3769836425782	-748.5490112304689	-228.2960815429688	348.9268188476563	-767.4963989257814	-216.0495910644532	295.9559631347657	-786.7614746093752	-265.5533752441407	139.33642578125	-745.5851440429689	-324.3624267578126	95.61575317382814	-782.087829589844	-120.7270736694336	87.37464904785158	-828.1876220703127	-107.469955444336	86.9822235107422	-792.431091308594	-137.8857727050782	67.18343353271486	-736.3368530273439	-254.3494110107422	141.2162017822266	-831.5101318359377	nan	nan	nan	nan	nan	nan	
198	0.985	-181.59912109375	1774.633178710938	-1050.532836914063	-318.5357360839844	1760.976684570313	-1127.885620117188	-365.1053466796876	1752.901611328125	-968.5161132812502	-405.3447875976564	1570.69091796875	-1056.348999023438	-420.5550842285157	1264.901977539063	-1036.174438476563	-266.9726867675782	1526.442016601563	-1048.705200195313	-305.8096923828126	1576.72314453125	-1199.08349609375	-144.6994171142578	1524.996337890625	-1293.941772460938	-117.3088989257813	1530.126342773438	-1252.410400390625	-77.68425750732423	1508.16845703125	-1293.89404296875	-20.37884330749512	1497.172485351563	-1282.79443359375	-43.57736206054688	1421.354370117188	-1268.852172851563	216.5922546386719	1469.632690429688	-1132.91162109375	236.1333465576172	1479.618286132813	-1026.620239257813	-328.7022399902344	1578.9287109375	-892.3686523437502	-184.8125305175782	1521.576171875	-779.566101074219	-149.257308959961	1530.1748046875	-814.8052368164065	-116.9507217407227	1507.48876953125	-770.630554199219	-55.17185211181642	1498.218017578125	-776.222106933594	-72.20724487304689	1418.676391601563	-789.0859375000002	198.5242156982422	1463.720947265625	-893.4052734375002	218.5532684326172	1456.865600585938	-1007.638916015625	-231.0199890136719	1069.946655273438	-1113.96923828125	-248.9895629882813	1061.433471679688	-894.9984130859377	-409.3207092285157	1115.656860351563	-1014.500915527344	-410.248992919922	1081.518676757813	-1040.324829101563	-322.7161560058594	828.2412719726565	-1174.862426757813	-289.0448608398438	751.8317871093751	-1165.456420898438	-242.0256652832032	756.2113037109376	-1161.050048828125	-315.7699890136719	699.7572021484376	-1150.7119140625	-300.7483825683594	540.7905883789064	-1123.28173828125	-291.3703613281251	544.5789794921876	-1001.0595703125	-277.9991149902344	371.9020996093751	-1037.2880859375	-306.3949584960938	318.3410949707032	-1102.775634765625	-275.2783813476563	320.0818176269532	-1067.446655273438	-290.6882934570313	244.5801391601563	-1030.465087890625	-345.6916809082032	126.5648956298828	-1063.390014648438	-324.0498657226563	140.2429809570313	-981.3189086914065	-408.3629150390626	111.199577331543	-1010.164245605469	-203.0156402587891	65.50020599365236	-987.8699951171877	-202.5069885253907	61.98072433471681	-1034.35205078125	-238.835433959961	46.48543548583985	-1080.712158203125	-313.5128479003907	791.144714355469	-803.2082519531252	-265.9513549804688	744.3212890625001	-793.3213500976565	-233.3531036376954	750.3890380859376	-798.8404541015627	-278.4272460937501	661.3132934570314	-802.0900878906252	-258.7209472656251	551.1874389648439	-794.7752075195315	-267.2319946289063	528.5363159179689	-916.8227539062502	-205.8212585449219	424.4334716796876	-807.7330322265627	-269.8481140136719	355.5440368652344	-748.1904907226564	-228.2888183593751	348.9381713867188	-767.1339111328126	-216.2367858886719	296.1925048828126	-786.2486572265627	-265.7059020996094	139.5680541992188	-745.1315307617189	-324.8086242675782	96.36440277099612	-781.3616943359377	-119.799072265625	88.10017395019533	-827.5178833007815	-107.5594100952149	87.04393005371095	-792.1545410156252	-137.8984985351563	67.12322998046876	-735.7146606445314	-254.5206909179688	141.4556427001953	-830.9591064453127	nan	nan	nan	nan	nan	nan	
199	0.99	-181.6909942626953	1774.839599609375	-1050.738159179688	-318.1891784667969	1761.080322265625	-1128.112670898438	-364.9417114257813	1753.101196289063	-968.697937011719	-405.2011108398439	1570.723022460938	-1056.414428710938	-420.4187316894532	1264.991943359375	-1036.132446289063	-266.9058837890626	1526.441528320313	-1048.76611328125	-305.7299194335938	1576.756713867188	-1199.242553710938	-144.6682586669922	1524.787475585938	-1294.241943359375	-117.2605133056641	1530.081909179688	-1252.605712890625	-77.6589813232422	1507.90771484375	-1293.996704101563	-20.23924636840821	1496.943481445313	-1282.968627929688	-43.66471099853516	1420.957763671875	-1268.575439453125	216.6282653808594	1469.619873046875	-1133.007202148438	235.7844238281251	1480.714233398438	-1027.091674804688	-328.4906311035157	1579.096069335938	-892.5645751953127	-184.7018127441407	1521.8232421875	-779.6451416015627	-149.1212921142578	1530.250366210938	-814.8933105468752	-116.7189025878907	1507.619018554688	-770.7730712890627	-55.06093215942384	1498.451171875	-776.3367919921877	-72.14915466308595	1418.87158203125	-789.1502685546877	198.7503204345704	1463.810180664063	-893.5701293945315	218.4888000488282	1456.861572265625	-1007.827819824219	-231.144515991211	1069.850952148438	-1113.809448242188	-248.9969329833985	1061.46484375	-894.9251708984377	-409.3158264160157	1115.864135742188	-1014.426818847656	-411.0631713867189	1081.895385742188	-1040.092163085938	-322.7999877929688	828.3046875000002	-1174.57373046875	-289.1827392578126	751.7361450195314	-1165.251098632813	-242.1421813964844	756.1094360351564	-1160.873779296875	-315.8760070800782	699.8158569335939	-1150.513427734375	-300.7974243164063	540.7383422851564	-1123.07861328125	-291.5236816406251	544.6778564453126	-1000.883666992188	-278.0637512207032	371.8771667480469	-1037.053466796875	-306.3151855468751	318.3998107910157	-1102.502319335938	-275.1970825195313	320.1427612304688	-1067.130004882813	-290.6598205566407	244.6968078613282	-1030.303466796875	-345.6686706542969	126.6070938110352	-1063.270141601563	-324.1438598632813	140.2991485595703	-981.2315673828127	-408.3905639648439	111.3011932373047	-1010.103637695313	-203.1325225830079	65.36560058593751	-987.7615356445315	-202.4389038085938	62.0792808532715	-1034.304809570313	-238.7941589355469	46.5709342956543	-1080.671997070313	-313.5186462402344	791.2215576171877	-802.9619140625002	-266.0009460449219	744.4873657226564	-793.1367797851565	-233.4766540527344	750.4876708984376	-798.6041259765627	-278.4922180175782	661.4237060546876	-801.8762207031252	-258.7441101074219	551.3546752929689	-794.609313964844	-267.3018798828126	528.6488647460939	-916.5447387695315	-206.091537475586	424.6810302734376	-807.3438110351565	-269.8445434570313	355.8374938964844	-747.8916625976564	-228.5977783203126	349.2739257812501	-766.6684570312501	-216.3942260742188	296.3180541992188	-785.818298339844	-265.8334350585938	139.7689666748047	-744.5660400390626	-324.8458557128907	96.4308776855469	-780.8518066406252	-119.9942398071289	87.91497802734376	-827.6018676757815	-108.1582794189453	87.13059234619142	-791.8445434570315	-138.3369293212891	67.14962768554689	-735.2495117187501	-254.7519683837891	141.6629638671875	-830.3855590820315	nan	nan	nan	nan	nan	nan	
200	0.995	-181.2756042480469	1774.94091796875	-1051.155517578125	-318.0314331054688	1761.050170898438	-1128.319458007813	-364.6777343750001	1753.11962890625	-968.9898681640627	-405.0210571289064	1570.708984375	-1056.457641601563	-420.3475036621095	1265.162231445313	-1036.06787109375	-266.8450622558594	1526.481689453125	-1048.812377929688	-305.6860046386719	1576.758178710938	-1199.372436523438	-144.4796142578125	1524.6572265625	-1294.478393554688	-117.1302871704102	1529.994018554688	-1252.79052734375	-77.49645996093751	1507.704833984375	-1294.231201171875	-19.74878311157227	1497.054321289063	-1283.620361328125	-43.05540084838868	1420.344116210938	-1269.579467773438	216.7828063964844	1469.527221679688	-1133.241943359375	235.9001922607422	1480.685791015625	-1027.270751953125	-328.2779541015626	1579.209594726563	-892.7151489257815	-184.2047271728516	1521.838623046875	-779.4602661132815	-149.0056457519532	1530.445434570313	-814.9465942382815	-116.516845703125	1507.818969726563	-770.891540527344	-54.90260696411134	1498.651000976563	-776.478210449219	-72.03681945800783	1419.002075195313	-789.2080078125002	199.0177154541016	1463.782836914063	-893.7167968750002	216.8375701904297	1456.050903320313	-1008.862243652344	-231.1752166748047	1069.839477539063	-1113.717041015625	-249.0570678710938	1061.684326171875	-894.8433227539065	-409.4021911621095	1115.971923828125	-1014.340515136719	-410.2805175781251	1081.60888671875	-1040.115234375	-322.9542236328126	828.2732543945315	-1174.33154296875	-289.2325134277344	751.7252807617189	-1165.016723632813	-242.2683715820313	756.0095214843751	-1160.659790039063	-315.9830627441407	699.8012695312501	-1150.284545898438	-300.8655090332032	540.7268066406251	-1122.908325195313	-291.7245788574219	544.6198730468751	-1000.600219726563	-278.0606384277344	371.9240722656251	-1036.926635742188	-306.3046875000001	318.3398132324219	-1102.274169921875	-275.1080932617188	320.1273498535157	-1066.908081054688	-290.7303771972657	244.7931518554688	-1030.077392578125	-345.6231079101563	126.6255950927735	-1063.180297851563	-324.1296081542969	140.0883941650391	-981.0545654296877	-408.3736877441407	111.2136001586914	-1010.021850585938	-203.0980377197266	65.26730346679689	-987.6687622070315	-202.3570251464844	62.09423828125001	-1034.235473632813	-238.8208312988282	46.63433456420899	-1080.627807617188	-313.5031738281251	791.4262695312502	-802.7044067382815	-266.0044250488282	744.5891113281251	-792.962829589844	-233.4314117431641	750.5858154296876	-798.509948730469	-278.3803405761719	661.6411132812501	-801.6973876953127	-258.8326110839844	551.5667724609376	-794.4077148437502	-267.4844970703126	528.7919921875001	-916.3557739257815	-206.1439514160157	424.7969665527345	-807.0407714843752	-269.7728576660157	356.0539550781251	-747.5394287109376	-228.8041992187501	349.4543457031251	-766.2940673828126	-216.506576538086	296.5369262695313	-785.4766235351565	-265.8471679687501	139.9747924804688	-744.1504516601564	-325.1420288085938	96.82513427734378	-780.234558105469	-120.5813369750977	87.88142395019533	-827.2248535156252	-108.5085144042969	87.13235473632814	-791.3193359375002	-138.469711303711	67.41615295410158	-734.6604003906251	-255.2002410888672	141.7991485595703	-829.8881835937502	nan	nan	nan	nan	nan	nan	
